<svg class="svg-icon" style="width: 1em;height: 1em;vertical-align: middle;fill: currentColor;overflow: hidden;" viewBox="0 0 1024 1024" version="1.1" xmlns="http://www.w3.org/2000/svg"><path d="M512 65.6c247.424 0 448 200.576 448 448S759.424 961.6 512 961.6 64 761.024 64 513.6 264.576 65.6 512 65.6z m0 48C291.0864 113.6 112 292.6864 112 513.6s179.0864 400 400 400 400-179.0864 400-400S732.9136 113.6 512 113.6z m135.7648 262.6352c9.3728 9.3728 9.3728 24.5696 0 33.9408L545.9408 512l101.824 101.824c9.3728 9.3712 9.3728 24.568 0 33.9408-9.3728 9.3728-24.5696 9.3728-33.9408 0L512 545.9408l-101.824 101.824c-9.3712 9.3728-24.568 9.3728-33.9408 0-9.3728-9.3728-9.3728-24.5696 0-33.9408l101.824-101.824-101.824-101.824c-9.3728-9.3712-9.3728-24.568 0-33.9408 9.3728-9.3728 24.5696-9.3728 33.9408 0l101.824 101.824 101.824-101.824c9.3712-9.3728 24.568-9.3728 33.9408 0z" fill="#F0F0F0" /></svg>