<svg width="15" height="16" viewBox="0 0 15 16" fill="none" xmlns="http://www.w3.org/2000/svg">
<path fill-rule="evenodd" clip-rule="evenodd" d="M11.2782 1.83259L14.2132 1.82388C14.6185 1.82268 14.948 2.15749 14.9492 2.57171L14.9848 14.5717C14.986 14.9859 14.6585 15.3226 14.2533 15.3238L1.04581 15.363C0.640571 15.3642 0.311065 15.0294 0.309837 14.6152L0.274251 2.61522C0.273022 2.20101 0.600536 1.86425 1.00577 1.86305L3.94076 1.85435L3.93631 0.354355L5.40381 0.350003L5.40825 1.85L9.81074 1.83694L9.80629 0.336947L11.2738 0.332595L11.2782 1.83259ZM13.4973 7.82603L1.75731 7.86085L1.77511 13.8608L13.5151 13.826L13.4973 7.82603ZM9.81518 3.33693L5.4127 3.34999L5.41715 4.84998L3.94966 4.85433L3.94521 3.35434L1.74397 3.36087L1.75287 6.36086L13.4928 6.32604L13.4839 3.32605L11.2827 3.33258L11.2871 4.83258L9.81963 4.83693L9.81518 3.33693ZM3.22926 9.35649L4.69675 9.35214L4.7012 10.8521L3.2337 10.8565L3.22926 9.35649ZM6.89799 9.34561L8.36548 9.34126L8.36993 10.8413L6.90244 10.8456L6.89799 9.34561ZM10.5667 9.33473L12.0342 9.33038L12.0387 10.8304L10.5712 10.8347L10.5667 9.33473Z" fill="white"/>
</svg>
