<svg width="17" height="15" viewBox="0 0 17 15" fill="none" xmlns="http://www.w3.org/2000/svg">
<path fill-rule="evenodd" clip-rule="evenodd" d="M16.3912 13.5599C16.3896 13.9697 16.0665 14.3023 15.6655 14.3068L2.44634 14.346C2.04423 14.3467 1.71748 14.0144 1.71626 13.6034L1.71402 12.8481L14.9215 12.809L14.8954 4.03401L9.04148 9.45139L1.68399 2.72318L1.68066 1.59818C1.67943 1.18397 2.00694 0.847213 2.41218 0.846011L15.6196 0.806844C16.0249 0.805642 16.3544 1.14045 16.3556 1.55466L16.3912 13.5599ZM3.46882 2.34288L9.03549 7.4339L14.5719 2.30996L3.46882 2.34288ZM0.237627 9.8525L6.1076 9.83509L6.11205 11.3351L0.242076 11.3525L0.237627 9.8525ZM0.226507 6.10252L3.89524 6.09164L3.89969 7.59163L0.230955 7.60251L0.226507 6.10252Z" fill="white"/>
</svg>
