<svg width="15" height="16" viewBox="0 0 15 16" fill="none" xmlns="http://www.w3.org/2000/svg">
<path fill-rule="evenodd" clip-rule="evenodd" d="M7.37512 15.0944C3.32263 15.1064 0.0276896 11.7584 0.0154056 7.61618C0.0031216 3.47395 3.27815 0.106469 7.33063 0.0944513C11.3831 0.0824334 14.6781 3.43043 14.6903 7.57266C14.7026 11.7149 11.4276 15.0824 7.37512 15.0944ZM3.70759 12.2973C4.74876 13.1429 6.04089 13.6005 7.37067 13.5944C8.81615 13.5901 10.1375 13.0522 11.1577 12.1642C10.1893 11.1545 8.86243 10.5881 7.47917 10.5941C6.04399 10.5966 4.67577 11.2145 3.70759 12.2973L3.70759 12.2973ZM2.67935 11.2233C3.92178 9.86752 5.65721 9.09696 7.47472 9.09406C9.22587 9.08654 10.9079 9.79247 12.1487 11.0557C13.8848 8.5423 13.4792 5.09366 11.2098 3.07186C8.94039 1.05005 5.54276 1.11045 3.34403 3.21169C1.1453 5.31292 0.858194 8.77387 2.67936 11.224L2.67935 11.2233ZM7.3551 8.34441C5.73415 8.34922 4.41613 7.00998 4.41121 5.35313C4.4063 3.69628 5.71636 2.34925 7.3373 2.34444C8.95825 2.33963 10.2763 3.67888 10.2812 5.33572C10.2861 6.99257 8.97605 8.33961 7.3551 8.34441ZM7.35065 6.84442C8.16112 6.84202 8.81615 6.1685 8.8137 5.34008C8.81124 4.51165 8.15223 3.84203 7.34175 3.84443C6.53128 3.84684 5.87625 4.52036 5.87871 5.34878C5.88116 6.1772 6.54018 6.84683 7.35065 6.84442Z" fill="white"/>
</svg>
