<svg width="19" height="19" viewBox="0 0 19 19" fill="none" xmlns="http://www.w3.org/2000/svg">
<path fill-rule="evenodd" clip-rule="evenodd" d="M10.2583 8.08955L10.2672 11.0895L14.6697 11.0765L14.6608 8.07649L10.2583 8.08955ZM8.79082 8.0939L4.38834 8.10695L4.39723 11.1069L8.79971 11.0939L8.79082 8.0939ZM10.2783 14.8395L14.6808 14.8265L14.6741 12.5765L10.2717 12.5895L10.2783 14.8395ZM8.81083 14.8439L8.80416 12.5939L4.40168 12.6069L4.40835 14.8569L8.81083 14.8439ZM10.2472 4.33956L10.2539 6.58955L14.6563 6.5765L14.6497 4.32651L10.2472 4.33956ZM8.7797 4.34391L4.37722 4.35697L4.38389 6.60696L8.78637 6.5939L8.7797 4.34391ZM3.63902 2.85915L15.379 2.82434C15.7842 2.82313 16.1137 3.15795 16.1149 3.57216L16.1505 15.5721C16.1518 15.9863 15.8242 16.3231 15.419 16.3243L3.67906 16.3591C3.27382 16.3603 2.94431 16.0255 2.94308 15.6113L2.9075 3.61132C2.90627 3.19711 3.23378 2.86035 3.63902 2.85915Z" fill="white"/>
</svg>
